<svg width="373" height="489" fill="none" xmlns="http://www.w3.org/2000/svg"><mask id="a" maskUnits="userSpaceOnUse" x="0" y="227" width="262" height="262"><path fill="#FF5722" stroke="#FF5722" d="M.5 227.5h261v261H.5z"/></mask><g mask="url(#a)" stroke="#FF5722" stroke-width="2"><path d="M-138.28 336.719l244.195 291.02M-111.52 314.264l244.195 291.02M-84.76 291.809l244.196 291.02M-57.999 269.354l244.195 291.021M-31.238 246.898l244.195 291.021M-4.478 224.444l244.195 291.021M22.283 201.99l244.195 291.02M49.043 179.535l244.195 291.02M75.804 157.081l244.195 291.02M102.564 134.626l244.195 291.02M129.325 112.172l244.195 291.02M156.085 89.716l244.195 291.02"/></g><g opacity=".7"><mask id="b" maskUnits="userSpaceOnUse" x="111" y="0" width="262" height="262"><path fill="#FF5722" stroke="#FF5722" d="M111.5.5h261v261h-261z"/></mask><g mask="url(#b)" stroke="#FF5722" stroke-width="2"><path d="M-27.28 109.719l244.195 291.02M-.52 87.264l244.195 291.02M26.24 64.81l244.196 291.019M53.001 42.355l244.195 291.02M79.762 19.898L323.957 310.92M106.522-2.556l244.195 291.02M133.282-25.01l244.195 291.02M160.043-47.465l244.195 291.02M186.803-69.92l244.195 291.021M213.564-92.374l244.195 291.02M240.324-114.829l244.195 291.021M267.085-137.284l244.195 291.02"/></g></g></svg>