<svg xmlns="http://www.w3.org/2000/svg" width="180" height="39"><path fill="#42b549" d="M89.224 30.019c-2.193 0-4.057-.441-5.96-1.531v-4.49c1.531 1.024 3.454 2 5.35 2 3.956 0 6.31-2.687 6.31-6.493 0-3.809-2.435-6.574-6.393-6.574-1.767 0-3.2.627-4.32 1.883-1.199 1.361-1.82 3.306-1.82 5.878v17.726h-.297c-2.18 0-3.947-1.743-3.947-3.893V20.027c0-6.152 3.812-11.119 10.365-11.119 3.236 0 5.863 1.092 7.856 3.284 1.873 2.05 2.802 4.645 2.802 7.769 0 2.78-.98 5.156-2.937 7.115-1.957 1.959-4.297 2.943-7.009 2.943zm45.476 0c-3.209 0-5.824-1.091-7.815-3.284-1.872-2.074-2.801-4.672-2.801-7.768 0-5.48 4.287-10.059 9.929-10.059 2.177 0 4.066.454 5.975 1.486v4.535c-1.53-1.024-3.452-1.998-5.348-1.998-3.956 0-6.312 2.685-6.312 6.493 0 3.755 2.493 6.573 6.393 6.573 1.766 0 3.22-.653 4.384-1.968 1.156-1.307 1.757-3.227 1.757-5.806V4.113c0-2.15 1.767-3.893 3.947-3.893h.298v18.665c0 3.287-.964 5.977-2.911 8.041-1.949 2.064-4.456 3.093-7.496 3.093zm19.484-23.103c-.446.492-1.084.719-1.863.719-1.458 0-2.5-1.06-2.5-2.487 0-1.46 1.023-2.445 2.5-2.445 1.421 0 2.5 1.039 2.5 2.445 0 .696-.207 1.292-.637 1.768zm21.57 11.307c0-1.651-.633-2.958-1.905-3.948-1.146-.891-2.577-1.344-4.319-1.344-3.842 0-6.309 2.963-6.309 6.616 0 3.516 2.615 6.45 6.269 6.45 2.542 0 3.901-1.464 5.35-3.288v5.26c-.738.546-1.588 1.14-2.455 1.49-.915.377-2.007.56-3.269.56-6.111 0-10.14-4.992-10.14-10.761 0-2.963.933-5.412 2.811-7.322 1.992-2.024 4.606-3.028 7.806-3.028 6.067 0 10.407 3.437 10.407 9.646v11.051h-.297c-2.182 0-3.949-1.743-3.949-3.894zm-58.113-1.186c-.537-1.637-1.209-2.442-2.756-3.294-3.679-2.028-7.3-.302-8.984 3.278zm-11.208 11.62c-2.532-1.395-4.228-3.47-5.078-6.211-1.718-5.544 1.802-11.722 7.464-13.218 2.807-.742 5.497-.406 8.054 1.003 4.246 2.342 5.794 5.964 5.524 10.63l-17.104-.034c.253 1.904 1.449 3.393 3.13 4.32 1.705.939 3.272 1.163 4.726.719 1.615-.5 2.924-1.8 3.99-3.01l3.485 2.505c-1.421 2.51-3.357 3.995-6.223 4.596-2.711.569-5.372.13-7.968-1.3zm43.765-19.334h4.245v20.282h-.299c-2.178 0-3.946-1.743-3.946-3.894zM6.213 29.605C2.06 29.605 0 26.82 0 22.93V8.169c0-2.151 1.768-3.894 3.948-3.894h.298v5.047h7.172v4.023H4.246v10.05c0 1.708.773 2.189 2.428 2.189h4.744v4.021zm24.654-2.563c-2.097 1.983-4.618 2.977-7.547 2.977-2.9 0-5.407-.995-7.504-2.977-2.105-1.991-3.154-4.525-3.154-7.578 0-5.957 4.611-10.555 10.658-10.555 2.903 0 5.416 1.002 7.526 3 2.118 2.002 3.175 4.528 3.175 7.555 0 3.053-1.05 5.587-3.154 7.578zm19.848-12.839c-.623 1.03-1.106 1.769-1.446 2.215-.374.486-.744.873-1.11 1.142 2.95.94 4.049 2.956 4.049 5.96v6.085h-.298c-2.18 0-3.948-1.743-3.948-3.894v-1.778c0-1.945-.884-3.265-2.973-3.265h-3.856v8.937h-.298c-2.18 0-3.946-1.743-3.946-3.894V4.114c0-2.151 1.766-3.894 3.946-3.894h.298v16.385h1.255c1.379 0 2.285-.465 2.805-1.345l3.566-5.936 4.837-.005zm21.913 12.839c-2.097 1.983-4.618 2.977-7.546 2.977-2.901 0-5.407-.995-7.505-2.977-2.104-1.991-3.153-4.525-3.153-7.578 0-5.957 4.61-10.555 10.658-10.555 2.902 0 5.415 1.002 7.526 3 2.117 2.002 3.174 4.528 3.174 7.555 0 3.053-1.05 5.587-3.153 7.578zm-3.064-12.298c-1.17-1.207-2.655-1.813-4.482-1.813-3.907 0-6.246 2.81-6.246 6.533 0 3.672 2.395 6.533 6.246 6.533 3.852 0 6.245-2.86 6.245-6.533 0-1.95-.594-3.514-1.763-4.72zm-41.761 0c-1.17-1.207-2.656-1.813-4.483-1.813-3.906 0-6.245 2.81-6.245 6.533 0 3.672 2.395 6.533 6.245 6.533 3.853 0 6.246-2.86 6.246-6.533 0-1.95-.594-3.514-1.763-4.72z"/></svg>