<svg xmlns="http://www.w3.org/2000/svg" width="120" height="36"><path fill="#6fda44" d="M41.953 18.428c0 5.254-4.219 9.457-9.492 9.457-2.344 0-4.57-.7-6.445-1.985l-2.11 9.924h-4.922l2.93-13.66c-1.289-1.75-2.46-3.619-3.398-5.604v2.102c0 5.137-4.102 9.223-9.258 9.223C4.102 27.885 0 23.682 0 18.662V6.287h4.687v12.258a4.443 4.443 0 004.454 4.436 4.443 4.443 0 004.453-4.436V6.17h4.804c1.055 3.62 2.579 7.122 4.688 10.274 1.406-4.67 4.805-7.589 9.258-7.589 5.273 0 9.492 4.32 9.61 9.573zm-9.492 4.553c2.578-.116 4.687-2.218 4.57-4.786-.117-2.569-2.226-4.67-4.804-4.553-3.399 0-4.57 3.385-4.922 5.37v.117l-.352 1.868c1.524 1.284 3.399 1.985 5.39 2.101z"/><path d="M86.132 18.312c0 5.254-4.218 9.456-9.492 9.456-5.273 0-9.492-4.202-9.492-9.456s4.219-9.457 9.492-9.457c5.274 0 9.492 4.203 9.492 9.457zm-3.867-.117c0-3.035-2.578-5.487-5.625-5.487-3.164 0-5.625 2.452-5.625 5.604s2.578 5.604 5.625 5.604c3.164 0 5.625-2.569 5.625-5.72zm15.47-4.786c-2.696 0-4.923 2.218-4.923 4.903v8.99h-4.101V9.438h4.101v2.802a6.357 6.357 0 015.274-2.802h1.289v3.97zm-41.25-3.97l3.046 12.375L62.929 9.44h3.985l-5.157 17.862h-4.101L54.492 14.81 51.328 27.3h-4.102L42.07 9.44h3.984l3.399 12.375L52.617 9.44zm61.991 17.862h-4.922l-5.742-7.822c-.234-.35-.703-.583-1.172-.583h-.468V27.3h-4.102V.8h4.102v13.893h.586c2.93 0 5.39-2.335 5.39-5.37h3.985c0 3.502-1.758 6.654-4.805 8.288z"/></svg>