<svg xmlns="http://www.w3.org/2000/svg" width="170" height="37"><path fill="#ffb900" d="M19.05 19.22h17.253v17.23H19.05z"/><path fill="#00a4ef" d="M0 19.22h17.253v17.23H0z"/><path fill="#737373" d="M65.577 7.442H70.7v21.7h-3.744V15.367c.029-.87.085-2.304.17-3.906h-.085c-.14.618-.282 1.349-.422 1.714L60.145 29.17h-2.477l-6.53-15.852a13.115 13.115 0 01-.506-1.855h-.085c.029.337.085.787.113 1.377.028 1.18.028 2.136.028 2.98v13.406H47.17V7.498h5.32l5.432 13.632a20.34 20.34 0 01.985 2.811h.084l1.013-2.867zm8.67 6.128h3.658v15.57h-3.659zm3.405-5.96c.422.422.647.928.647 1.519 0 .59-.225 1.096-.647 1.49-.394.365-.929.59-1.548.59-.62 0-1.126-.197-1.548-.59a1.976 1.976 0 01-.648-1.49c0-.619.226-1.125.648-1.518a2.194 2.194 0 011.548-.619c.647 0 1.182.225 1.548.619zm14.973 6.381l.028.028v3.57l-.14-.113c-1.098-.787-2.308-1.18-3.49-1.18-1.408 0-2.562.478-3.434 1.405-.873.928-1.295 2.193-1.295 3.795 0 1.546.422 2.783 1.267 3.682.816.928 1.97 1.35 3.433 1.35.507 0 1.098-.113 1.745-.338a6.295 6.295 0 001.774-.928l.14-.112v3.373l-.028.028c-1.182.674-2.674 1.04-4.419 1.04-1.52 0-2.87-.337-4.024-.984-1.21-.646-2.111-1.602-2.759-2.783-.647-1.208-.985-2.53-.985-4.019 0-1.715.338-3.204 1.013-4.497.648-1.265 1.661-2.277 2.928-3.008 1.266-.73 2.786-1.096 4.447-1.096.675 0 1.379.084 2.054.225.732.14 1.267.365 1.745.562zm11.709-.421l.084.028v3.654l-.14-.113c-.197-.14-.479-.253-.873-.365-.422-.056-.76-.14-1.098-.14-.957 0-1.745.42-2.364 1.264-.619.815-.9 1.94-.9 3.289v7.954h-3.66V13.57h3.66v2.726h.028c.366-.871.788-1.602 1.407-2.108a3.864 3.864 0 012.477-.871c.619 0 1.126.084 1.379.253zm14.27 1.798c1.379 1.434 2.054 3.402 2.054 5.875 0 2.502-.703 4.525-2.167 6.043-1.435 1.518-3.434 2.277-5.939 2.277-2.392 0-4.306-.731-5.713-2.136-1.407-1.434-2.14-3.401-2.14-5.819 0-2.586.704-4.637 2.168-6.127 1.435-1.49 3.49-2.249 6.051-2.249 2.42 0 4.363.703 5.686 2.136zm-1.689 5.96c0-1.66-.394-2.924-1.126-3.795-.732-.872-1.745-1.293-3.04-1.293-1.322 0-2.364.45-3.124 1.349-.731.9-1.125 2.164-1.125 3.823 0 1.602.365 2.867 1.125 3.738.76.927 1.83 1.35 3.153 1.35s2.392-.423 3.068-1.294c.703-.871 1.013-2.192 1.069-3.879zm15.199.646c.619.702.9 1.63.9 2.67 0 1.49-.59 2.642-1.717 3.542-1.097.927-2.645 1.349-4.531 1.349-.62 0-1.323-.113-2.11-.253-.789-.197-1.436-.366-1.971-.619l-.085-.028v-3.57l.141.113a7.835 7.835 0 002.055 1.04c.76.253 1.407.365 2.026.365 1.605 0 2.393-.506 2.393-1.545 0-.366-.085-.647-.226-.872-.197-.197-.45-.45-.844-.675-.394-.224-1.041-.505-1.886-.87-1.013-.422-1.745-.872-2.251-1.266a4.261 4.261 0 01-1.126-1.461c-.253-.534-.366-1.18-.366-1.912 0-1.377.535-2.557 1.66-3.429 1.126-.927 2.562-1.349 4.307-1.349.506 0 1.126.056 1.801.169.676.14 1.239.309 1.66.478l.085.028v3.429l-.14-.113c-.45-.337-1.014-.59-1.633-.759-.62-.168-1.267-.28-1.886-.28-.703 0-1.182.14-1.604.421a1.305 1.305 0 00-.591 1.124c0 .506.14.9.422 1.18.338.31 1.07.675 2.224 1.153a11.419 11.419 0 013.293 1.94zm16.24-6.606c1.379 1.434 2.054 3.402 2.054 5.875 0 2.502-.703 4.525-2.167 6.043-1.435 1.518-3.434 2.277-5.939 2.277-2.392 0-4.306-.731-5.713-2.136-1.407-1.434-2.14-3.401-2.14-5.819 0-2.586.733-4.637 2.168-6.127 1.435-1.49 3.49-2.249 6.051-2.249 2.42 0 4.363.703 5.686 2.136zm-1.717 5.96c0-1.66-.394-2.924-1.126-3.795-.732-.872-1.773-1.293-3.04-1.293-1.323 0-2.364.45-3.124 1.349-.732.9-1.126 2.164-1.126 3.823 0 1.602.366 2.867 1.126 3.738.76.927 1.801 1.35 3.152 1.35 1.323 0 2.393-.423 3.068-1.294.704-.871 1.07-2.192 1.07-3.879zm23.333-4.75h-3.744v7.363c0 .956.169 1.602.507 1.996.366.421.872.59 1.604.59.197 0 .451-.028.732-.112.338-.085.535-.197.76-.338l.141-.112v3.007l-.029.029c-.225.112-.619.253-1.153.365-.507.084-1.042.169-1.548.169-3.097 0-4.645-1.659-4.645-4.947v-8.01h-5.516V29.14h-3.687V16.55h-2.561v-2.98h2.561v-2.164c0-1.096.253-2.052.732-2.895a4.872 4.872 0 011.998-1.995 6.596 6.596 0 012.927-.675c.873 0 1.548.112 2.055.281l.084.028v3.176l-.141-.084c-.591-.253-1.125-.365-1.632-.365-.732 0-1.323.224-1.717.674-.394.45-.619 1.153-.619 2.052v1.968h5.516v-3.514l.085-.028 3.49-1.04.113-.028v4.61h3.687z"/><path fill="#7fba00" d="M19.05.19h17.253v17.23H19.05z"/><path fill="#f25022" d="M0 .19h17.253v17.23H0z"/></svg>