<svg xmlns="http://www.w3.org/2000/svg" width="146" height="47"><path fill="#95bf47" d="M35.724 39.938l-12.573 2.711L-.02 38.32s2.977-22.999 3.096-23.807c.143-1.07.166-1.094 1.31-1.451.166-.071 1.619-.5 3.667-1.142.786-3.33 3.31-9.87 8.549-9.87.667 0 1.476.38 2.096 1.19h.214c2.262 0 3.524 1.926 4.263 4.042.738-.237 1.19-.38 1.214-.38.19-.048.643-.119.881.119.262.214 2.43 2.378 2.43 2.378s3.119.238 3.262.238c.143 0 .333.095.357.31.024.213 4.43 29.943 4.405 29.99zM19.46 4.642c.31.833.476 1.88.476 3.164v.428c.69-.238 1.381-.452 1.953-.619-.5-1.522-1.239-2.83-2.43-2.973zm-4.977 5.28c1.405-.451 2.762-.856 4.048-1.26v-.238c0-1.57-.214-2.711-.524-3.52-1.238.547-2.739 2.022-3.524 5.018zM9.72 11.421c1.024-.333 2.095-.642 3.215-.999.738-3.996 2.524-5.97 4.215-6.755a1.139 1.139 0 00-.667-.238c-3.763 0-5.906 4.948-6.763 7.992z"/><path fill="#fff" d="M18.907 16.535l-1.524 4.59s-1.381-.737-3.024-.737c-2.453 0-2.572 1.546-2.572 1.927 0 2.093 5.477 2.901 5.477 7.825 0 3.876-2.453 6.374-5.763 6.374-4 0-6.001-2.474-6.001-2.474l1.072-3.52s2.095 1.808 3.857 1.808c1.167 0 1.644-.904 1.644-1.57 0-2.735-4.477-2.854-4.477-7.373 0-3.782 2.714-7.444 8.215-7.444 2.048-.024 3.096.594 3.096.594z"/><path d="M53.962 29.904c0 3.925-3.215 6.113-7.644 6.113-3.048 0-4.858-1.213-4.858-1.213l1.215-3.496s1.976 1.07 4.048 1.07c1.405 0 2.167-.761 2.167-1.689 0-.904-.524-1.522-2.048-2.354-1.858-1.07-3.263-2.569-3.263-4.543 0-3.473 3.001-5.946 7.311-5.946 3.096 0 4.144.809 4.144.809L53.89 22.15s-1.453-.666-3.096-.666c-1.405 0-2.31.642-2.31 1.641 0 .785.643 1.38 1.905 2.045 1.93 1.118 3.525 2.593 3.572 4.733zm18.17-7.61c0 .88-.143 2.164-.357 3.234l-1.929 10.18h-4.93l1.858-9.87c.167-.666.214-1.523.214-2.189 0-1.07-.428-1.831-1.548-1.831-1.571 0-3.262 2.022-3.905 5.28l-1.643 8.61h-4.93l4.81-25.211h4.93l-1.905 9.894.048.024c1.31-1.57 3.024-2.617 5.215-2.617 2.596 0 4.048 1.665 4.072 4.496zm17.813 2.402c0 6.112-3.93 11.32-9.764 11.32-4.43 0-6.787-3.091-6.787-6.896 0-5.97 3.93-11.322 9.883-11.322 4.644 0 6.692 3.354 6.668 6.898zm-5.001-.12c0-1.45-.596-2.972-2.334-2.972-2.69 0-4.143 4.59-4.143 7.42 0 1.808.69 3.235 2.38 3.235 2.597 0 4.097-4.662 4.097-7.682zm22.79-.475c0 5.994-3.787 11.94-9.597 11.94-1.858 0-2.882-.642-2.882-.642h-.119L93.755 42.7h-4.93l3.406-18.052a113.19 113.19 0 001-6.54h4.382l-.286 2.64h.048s1.88-2.95 5.215-2.95c3.62 0 5.12 2.973 5.144 6.303zm-5.216.476c0-1.308-.452-2.712-1.976-2.712-1.715 0-3.334 2.022-3.906 5.114l-.81 4.59s.763.738 2.049.738c2.762 0 4.667-4.543 4.643-7.73zm14.67-11.369c-.024 1.808-1.334 2.854-2.882 2.854h-.047c-1.406 0-2.334-1.023-2.334-2.473a2.829 2.829 0 012.834-2.854c1.476 0 2.452 1.022 2.429 2.473zm-6.025 4.971h4.953l-3.334 17.505h-4.93zm16.812 3.734h-3.405l-2.62 13.795h-4.93l2.62-13.795h-2.31l.739-3.734h2.31l.143-.809c.38-2.093 1.166-4.162 2.857-5.589 1.334-1.142 3.096-1.641 4.834-1.641 1.858 0 2.691.428 2.691.428l-.952 3.877s-.69-.262-1.572-.262c-1.667 0-2.667 1.475-2.953 3.164l-.166.808h3.429zm12.598-3.758h5.167l-6.025 12.962c-2.143 4.424-4.238 7.683-6.477 9.776-1.738 1.64-3.834 2.473-4.834 2.687l-1.381-4.186c.833-.285 1.881-.737 2.81-1.403 1.143-.785 2.12-1.855 2.69-2.973.144-.238.167-.452.12-.809l-2.977-16.03h5.191s1.12 10.655 1.215 12.035h.047c1.358-4.258 4.454-12.035 4.454-12.035z"/><path fill="#5e8e3e" d="M30.96 9.589c-.143 0-3.263-.238-3.263-.238s-2.167-2.164-2.429-2.378a.461.461 0 00-.31-.143L23.22 42.649l12.574-2.712s-4.406-29.777-4.43-29.991a.644.644 0 00-.405-.357z"/></svg>