<svg xmlns="http://www.w3.org/2000/svg" width="109" height="46"><path fill="#32325d" d="M59.087 10.75H51.59v26.204h7.497zM43.55 12.966l-.478-2.216H36.62v26.204h7.467v-17.76c1.763-2.305 4.75-1.886 5.676-1.556V10.75c-.956-.36-4.45-1.019-6.213 2.216zm64.793 13.655H93.737c.329 3.534 2.898 4.552 5.795 4.552 2.957 0 5.287-.629 7.318-1.647v5.99c-2.031 1.138-4.72 1.946-8.274 1.946-7.288 0-12.366-4.552-12.366-13.566 0-7.607 4.301-13.656 11.41-13.656 7.08 0 10.783 6.05 10.783 13.716 0 .719-.06 2.276-.06 2.665zm-6.99-5.51c0-3.384-1.94-4.792-3.763-4.792-1.881 0-3.942 1.408-3.942 4.792zM84.86 23.657c0 9.493-4.87 13.805-10.216 13.805-2.628 0-4.211-1.108-5.287-1.886l-.03 8.475-7.467 1.587V10.719h6.571l.389 1.857c1.045-.958 2.927-2.336 5.854-2.336 5.227 0 10.156 4.732 10.186 13.417zm-7.378.21c0-3.924-1.882-6.979-4.6-6.979-1.703 0-2.778.6-3.555 1.468l.03 11.11c.717.779 1.763 1.408 3.525 1.408 2.748 0 4.6-2.995 4.6-7.008zM8.427 18.356c0-1.168.956-1.617 2.539-1.617 2.27 0 5.138.688 7.408 1.916v-7.037c-2.48-.989-4.929-1.378-7.408-1.378C4.902 10.24.87 13.414.87 18.715c0 8.266 11.35 6.948 11.35 10.512 0 1.377-1.194 1.827-2.867 1.827-2.48 0-5.645-1.019-8.154-2.396v7.127a20.66 20.66 0 008.154 1.707c6.213 0 10.484-3.084 10.484-8.445-.03-8.924-11.41-7.337-11.41-10.691zM28.618 4.26L21.33 5.817l-.03 23.988c0 4.432 3.316 7.697 7.736 7.697 2.45 0 4.242-.45 5.227-.988v-6.08c-.955.39-5.675 1.767-5.675-2.665V17.137h5.675V10.76h-5.675zM51.59 8.477l7.497-1.618V.78L51.59 2.367z"/></svg>