<svg xmlns="http://www.w3.org/2000/svg" width="32" height="32"><path fill="#10375c" d="M24.5 3.75A3.754 3.754 0 0128.25 0 3.754 3.754 0 0132 3.75a3.754 3.754 0 01-3.75 3.75 3.754 3.754 0 01-3.75-3.75zm2.5 0a1.25 1.25 0 102.5 0 1.25 1.25 0 00-2.5 0zm-27 0A3.754 3.754 0 013.75 0 3.754 3.754 0 017.5 3.75 3.754 3.754 0 013.75 7.5 3.754 3.754 0 010 3.75zm2.5 0a1.25 1.25 0 102.5 0 1.25 1.25 0 00-2.5 0zM32 12.438v6.812a3.756 3.756 0 01-2.5 3.535v.028c-.032 0-.064.002-.096.004a3.768 3.768 0 01-.427.112 1.25 1.25 0 00-.727 1.134V32h-2.5v-7.938c0-.368.054-.725.154-1.062H24.5c-.69 0-1.25.56-1.25 1.25V32h-2.5v-7.75a3.754 3.754 0 013.75-3.75h3.75c.032 0 .064-.002.096-.005.139-.045.281-.082.427-.111a1.25 1.25 0 00.727-1.134v-6.813a1.25 1.25 0 00-1.239-1.25c-.565 0-1.147-.003-1.826 2.023-.324.968-1.24 3.72-1.249 3.747l-.284.856H7.098l-.284-.856c-.01-.028-.925-2.779-1.25-3.747-.679-2.026-1.26-2.024-1.825-2.022a1.25 1.25 0 00-1.239 1.25v6.812c0 .502.299.935.727 1.134.146.029.288.066.428.111a.99.99 0 00.095.005h3.812a3.754 3.754 0 013.75 3.75V32h-2.5v-7.75c0-.69-.56-1.25-1.25-1.25H6.096c.1.337.154.694.154 1.063V32h-2.5v-7.938a1.25 1.25 0 00-.727-1.133 3.734 3.734 0 01-.428-.112 1.208 1.208 0 00-.095-.005v-.027A3.756 3.756 0 010 19.25v-6.813a3.754 3.754 0 013.73-3.75h.019c2.587 0 3.568 1.884 4.186 3.728l.966 2.898h1.474v-2.876a3.754 3.754 0 013.75-3.75h3.75a3.754 3.754 0 013.75 3.75v2.876h1.474c.3-.9.755-2.27.966-2.898.618-1.844 1.599-3.727 4.186-3.727h.018A3.754 3.754 0 0132 12.438zm-19.125 2.874h6.25v-2.874c0-.69-.56-1.25-1.25-1.25h-3.75c-.69 0-1.25.56-1.25 1.25zM12.25 3.75A3.754 3.754 0 0116 0a3.754 3.754 0 013.75 3.75A3.754 3.754 0 0116 7.5a3.754 3.754 0 01-3.75-3.75zm2.5 0a1.25 1.25 0 102.5 0 1.25 1.25 0 00-2.5 0z"/></svg>