<svg xmlns="http://www.w3.org/2000/svg" width="32" height="32"><path fill="#10375c" d="M15.943 29.155a2.062 2.062 0 100-4.125 2.062 2.062 0 000 4.125zm6.127-9.133c-1.627-1.611-3.958-2.612-6.084-2.612h-.091c-2.127 0-4.459 1-6.085 2.612a1.25 1.25 0 001.76 1.776c1.157-1.147 2.855-1.888 4.324-1.888h.091c1.47 0 3.168.741 4.325 1.888a1.25 1.25 0 101.76-1.776zm9.594-10.347C27.556 5.268 21.994 2.84 16 2.84 10.007 2.84 4.444 5.268.336 9.675a1.25 1.25 0 001.828 1.705C5.794 7.485 10.708 5.34 16 5.34s10.206 2.145 13.835 6.04a1.247 1.247 0 001.767.062 1.25 1.25 0 00.062-1.767z"/><path fill="#10375c" d="M27.072 14.844c-3.037-3.06-6.97-4.744-11.075-4.744-4.105 0-8.039 1.685-11.074 4.745a1.25 1.25 0 101.774 1.76c2.563-2.582 5.866-4.005 9.3-4.005 3.434 0 6.737 1.422 9.3 4.006a1.246 1.246 0 001.769.006 1.25 1.25 0 00.006-1.768z"/></svg>